<svg xmlns="http://www.w3.org/2000/svg" width="206" height="292" fill="none" viewBox="0 0 206 292">
  <g clip-path="url(#a)">
    <path fill="#CCC" d="M0 291.37a.636.636 0 0 0 .182.445.62.62 0 0 0 .443.185h204.746a.626.626 0 0 0 .629-.63.629.629 0 0 0-.629-.63H.629a.638.638 0 0 0-.444.183.626.626 0 0 0-.185.443v.004Z"/>
    <path fill="#CCC" d="M81.82 205.082a23.419 23.419 0 0 1 6.782-.369.798.798 0 0 0 .793-.794.813.813 0 0 0-.793-.794 24.88 24.88 0 0 0-7.203.425.794.794 0 0 0 .422 1.532Z" opacity=".5"/>
    <path fill="#F2F2F2" d="M27.382 191.267c-4.36-5.809-6.881-12.305-6.964-19.71a1.6 1.6 0 0 1 .971-2.038l14.864-5.267a1.598 1.598 0 0 1 2.034.973l6.964 19.71a1.601 1.601 0 0 1-.971 2.037l-14.864 5.267a1.593 1.593 0 0 1-2.034-.972Z"/>
    <path fill="#000" d="M30.738 190.916a1.593 1.593 0 0 1-2.034-.972c-4.36-5.809-6.881-12.305-6.964-19.711a1.58 1.58 0 0 1-.058-.817l-.293.103a1.598 1.598 0 0 0-.97 2.038c.082 7.405 2.602 13.901 6.963 19.71a1.593 1.593 0 0 0 2.034.972l14.864-5.267a1.586 1.586 0 0 0 1.03-1.22l-14.572 5.164Z" opacity=".2"/>
    <path fill="#fff" d="m37.702 176.163-9.951 3.557a.632.632 0 0 1-.81-.384.637.637 0 0 1 .384-.812l9.95-3.557a.634.634 0 0 1 .427 1.196Zm-8.931-.505-2.189.783a.637.637 0 0 1-.812-.382.631.631 0 0 1 .17-.685.65.65 0 0 1 .212-.128l.004-.001 2.19-.782a.634.634 0 0 1 .425 1.195Zm10.804 5.762-9.95 3.557a.634.634 0 0 1-.427-1.195l9.951-3.558a.636.636 0 0 1 .43 1.195l-.004.001Zm-.936-2.628-9.951 3.557a.632.632 0 0 1-.81-.384.635.635 0 0 1 .382-.812h.002l9.95-3.557a.634.634 0 0 1 .426 1.196Z"/>
    <path fill="#CCC" d="M28.425 169.723a2.645 2.645 0 0 0 2.644-2.647 2.645 2.645 0 0 0-2.643-2.647 2.645 2.645 0 0 0-2.644 2.647 2.645 2.645 0 0 0 2.643 2.647Z"/>
    <path fill="#2F2E41" d="M125.169 52.738c.042 3.876 1.274 11.945.391 15.74l-.143-.317a17.378 17.378 0 0 1-2.331 1.562 11.185 11.185 0 0 0-2.591-3.812 13.407 13.407 0 0 1-.618 5.273c-3.304 1.191-9.103-2.563-12.698-2.642-5.784-.132-11.42-1.572-16.944-3.097-1.96-.54-4.118-1.244-5.006-2.875-.888-1.63.701-3.39.597-5.23-.74-13.107 5.493-15.304 11.425-18.807 1.305-.77 1.945-2.43 3.42-3.075 2.046-.895 4.483-.466 6.709-.016a3.386 3.386 0 0 1-2.242-2.457 3.064 3.064 0 0 1 1.195-2.965c1.226-.948 3.056-1.064 4.62-.662a15.43 15.43 0 0 1 4.24 2.086 8.419 8.419 0 0 1 2.326 1.885 2.333 2.333 0 0 1 .275 2.647 3.02 3.02 0 0 1-2.363 1.15 7.9 7.9 0 0 1-2.083-.218 15.843 15.843 0 0 1 8.073 4.892c2.648 3.087 3.7 7.063 3.748 10.938Z"/>
    <path fill="#FFB6B6" d="M32.76 90.088a4.835 4.835 0 0 0 6.323 2.374c.234-.107.458-.233.67-.376l13.613 10.016 7.505-5.13-20.129-11.701a4.827 4.827 0 0 0-5.721-1.42 4.622 4.622 0 0 0-2.72 4.362 4.635 4.635 0 0 0 .46 1.875Zm140.299-9.09a4.843 4.843 0 0 0-4.22 5.28c.029.255.079.507.149.754l-13.739 9.84 2.532 8.739 17.366-15.518a4.832 4.832 0 0 0 3.127-5.005 4.631 4.631 0 0 0-3.293-3.945 4.613 4.613 0 0 0-1.922-.145ZM73.428 282.669l-4.425-.038-1.958-17.489 6.53.055-.147 17.472Z"/>
    <path fill="#2F2E41" d="M59.256 289.715a1.986 1.986 0 0 0 1.961 1.998l8.797.074 1.54-3.126.566 3.142 3.319.03-.838-11.207-1.155-.077-4.71-.325-1.52-.102-.027 3.171-7.066 4.8a1.975 1.975 0 0 0-.867 1.622Z"/>
    <path fill="#FFB6B6" d="m131.751 263.039-3.612 2.558-11.793-13.048 5.331-3.776 10.074 14.266Z"/>
    <path fill="#2F2E41" d="M124.361 277.05a1.982 1.982 0 0 0 2.757.474l7.182-5.088-.574-3.438 2.292 2.219 2.712-1.918-7.219-8.605-.982.614-4.012 2.492-1.293.806 1.828 2.589-2.934 8.031a1.986 1.986 0 0 0 .243 1.824Z"/>
    <path fill="#FFB6B6" d="m76.747 140.87 12.852-29.889H119.2l-8.538 31.193-33.916-1.304Z"/>
    <path fill="#F2F2F2" d="M49.573 282.803a1.204 1.204 0 0 1-.87-2.083l.082-.327-.032-.079a3.214 3.214 0 0 0-4.761-1.421 3.222 3.222 0 0 0-1.182 1.444c-.972 2.344-2.21 4.692-2.514 7.171a9.56 9.56 0 0 0 .167 3.283 38.315 38.315 0 0 1-3.476-15.894 37.078 37.078 0 0 1 .755-7.462 38.74 38.74 0 0 1 7.665-16.407 10.295 10.295 0 0 0 4.279-4.445c.34-.678.58-1.401.713-2.148-.208.028-.785-3.149-.628-3.344-.29-.441-.81-.66-1.127-1.091-1.576-2.141-3.748-1.767-4.882 1.142-2.423 1.225-2.446 3.255-.96 5.208.946 1.243 1.076 2.924 1.905 4.254-.085.11-.174.216-.26.325a38.962 38.962 0 0 0-4.06 6.443 16.224 16.224 0 0 0-.965-7.524c-.924-2.232-2.657-4.113-4.182-6.043a3.319 3.319 0 0 0-5.912 1.632l-.01.086c.227.128.449.264.666.407a1.631 1.631 0 0 1-.657 2.966l-.033.005c.081.818.224 1.629.427 2.425-1.957 7.579 2.268 10.34 8.3 10.464.134.068.264.136.397.201a39.825 39.825 0 0 0-2.138 10.074 37.788 37.788 0 0 0 .028 6.091l-.01-.072a9.968 9.968 0 0 0-3.398-5.755c-2.614-2.151-6.308-2.943-9.129-4.672a1.865 1.865 0 0 0-2.701.783 1.878 1.878 0 0 0-.16 1.037l.012.075a10.92 10.92 0 0 1 1.891.999 1.631 1.631 0 0 1-.656 2.966l-.033.005a1.605 1.605 0 0 1-.068.01 16.23 16.23 0 0 0 2.98 4.675c1.224 6.616 6.48 7.244 12.101 5.317h.004a39.778 39.778 0 0 0 2.666 7.797h9.527c.034-.106.065-.215.096-.321-.882.055-1.767.002-2.636-.158.706-.868 1.413-1.744 2.12-2.612a.553.553 0 0 0 .044-.052c.359-.444.72-.885 1.08-1.33a15.899 15.899 0 0 0-.465-4.045Zm103.085 0a1.204 1.204 0 0 0 1.162-.737 1.2 1.2 0 0 0-.293-1.346l-.082-.327.032-.079a3.237 3.237 0 0 1 1.193-1.435 3.213 3.213 0 0 1 3.569.014c.527.354.938.856 1.181 1.444.972 2.344 2.21 4.692 2.514 7.171a9.537 9.537 0 0 1-.167 3.283 38.32 38.32 0 0 0 3.476-15.894 36.852 36.852 0 0 0-.229-4.121 38.1 38.1 0 0 0-.526-3.341 38.729 38.729 0 0 0-7.665-16.407 10.292 10.292 0 0 1-4.278-4.445 7.835 7.835 0 0 1-.714-2.148c.208.028.785-3.149.628-3.344.29-.441.81-.66 1.127-1.091 1.577-2.141 3.749-1.767 4.883 1.142 2.422 1.225 2.446 3.255.959 5.208-.945 1.243-1.075 2.924-1.905 4.254.085.11.174.216.259.325a38.919 38.919 0 0 1 4.061 6.443 16.225 16.225 0 0 1 .966-7.524c.924-2.232 2.656-4.113 4.181-6.043a3.315 3.315 0 0 1 3.501-1.162 3.322 3.322 0 0 1 2.412 2.794l.009.086c-.227.128-.448.264-.665.407a1.628 1.628 0 0 0-.685 1.708 1.633 1.633 0 0 0 1.341 1.258l.033.005a16.198 16.198 0 0 1-.427 2.425c1.957 7.579-2.268 10.34-8.301 10.464-.133.068-.262.136-.396.201a39.826 39.826 0 0 1 2.138 10.074 37.765 37.765 0 0 1-.027 6.091l.01-.072a9.968 9.968 0 0 1 3.397-5.755c2.615-2.151 6.309-2.943 9.129-4.672a1.865 1.865 0 0 1 2.702.783c.15.323.206.683.159 1.037l-.012.075a10.973 10.973 0 0 0-1.891.999 1.628 1.628 0 0 0-.685 1.708 1.633 1.633 0 0 0 1.341 1.258l.033.005.069.01a16.244 16.244 0 0 1-2.981 4.675c-1.224 6.616-6.479 7.244-12.101 5.317h-.004a39.736 39.736 0 0 1-2.666 7.797h-9.527a9.74 9.74 0 0 1-.095-.321c.881.055 1.767.002 2.636-.158-.707-.868-1.414-1.744-2.121-2.612a.55.55 0 0 1-.044-.052c-.359-.444-.721-.885-1.079-1.33a15.88 15.88 0 0 1 .465-4.045Z"/>
    <path fill="#2F2E41" d="m76.747 138.626-12.76 26.658.91 106.236h10.93s2.125-2.871 2.125-4.882c0-2.011-3.615-2.302-1.205-4.771s3.213-3.273 3.213-5.686v-38.609l8.617-37.427-.91 41.124 30.965 37.012 7.214-7.224s2.109-.931 0-2.931c-2.11-2.001-3.425 1.532-3.571-4.055-.145-5.588 1.059-4.381-.145-5.588-1.205-1.206-18.07-21.369-18.07-21.369s15.258-65.107 7.627-77.576l-34.94-.912Z"/>
    <path fill="#E6E6E6" d="M112.491 141.549s-32.933-11.664-30.523-18.099c2.41-6.436 6.457-5.198 1.622-7.225-4.835-2.026-8.039-2.429-5.031-5.244 3.007-2.816 7.425-5.631 7.425-8.447 0-2.815 3.615-24.937 3.615-24.937h5.786l5.86-10.055h8.28l4.171 9.25h8.807l.43 14.078s.569 27.196-2.125 28.279c-2.695 1.083-5.104 1.083-2.695 3.496 2.41 2.413 3.783 3.661 2.695 5.853-1.088 2.191-8.317 13.051-8.317 13.051Z"/>
    <path fill="#E6E6E6" d="m117.31 80.815 5.193-4.022s8.864 0 10.069 4.826c1.205 4.827 8.456 16.63 8.456 16.63s7.207-4.161 10.018-4.161c2.811 0 4.82 2.01 4.82-.402 0-2.414-1.607-2.816.803-2.816 2.409 0 8.835-2.413 8.835-2.413l6.855 6.864s-.83 6.409-3.642 6.007c-2.811-.403-4.418-2.414-4.418 0 0 2.413 1.607 6.033-2.008 6.435-3.614.402-27.711 6.436-27.711 6.436l-16.467-24.133-.803-9.251Zm-20.884 0-5.192-4.022s-8.864 0-10.07 4.826c-1.204 4.827-8.86 16.63-8.86 16.63s-6.803-4.161-9.614-4.161c-2.811 0-4.82 2.01-4.82-.402 0-2.414 1.607-2.816-.802-2.816-2.41 0-8.836-2.413-8.836-2.413l-6.854 6.864s.83 6.409 3.641 6.007c2.811-.403 4.418-2.414 4.418 0 0 2.413-1.607 6.033 2.008 6.435 3.614.402 27.711 6.436 27.711 6.436l16.467-24.133.803-9.251Z"/>
    <path fill="#FFB6B6" d="M104.422 65.357c7.079 0 12.817-5.747 12.817-12.836s-5.738-12.836-12.817-12.836c-7.078 0-12.816 5.747-12.816 12.836 0 7.09 5.738 12.836 12.816 12.836Z"/>
    <path fill="#2F2E41" d="M118.407 50.584c-1.506 1.826-3.748 1.73-5.741 1.44a47.48 47.48 0 0 1-1.887-.307c-.111-.355-.238-.71-.381-1.054a11.195 11.195 0 0 0-2.59-3.812 13.18 13.18 0 0 1-.323 4.198 67.707 67.707 0 0 1-3.489-.905 4.047 4.047 0 0 1-3.372-4.447c-1.666 1.27-3.479 2.372-5.382 2.393a5.018 5.018 0 0 1-4.705-3.67c-.518-1.587-.439-3.42-.228-5.135.254-2.038.825-4.278 2.2-5.098 1.105-.667 2.379-.19 3.515.35a40.49 40.49 0 0 1 7.084 4.351l.027.556c.571-2.737 2.458-4.85 4.514-5.061 1.385-.138 2.739.503 4.044 1.149a19.073 19.073 0 0 1 4.711 2.97 10.515 10.515 0 0 1 3.182 5.49c.492 2.293.122 5.014-1.179 6.592Z"/>
    <path fill="#2F2E41" d="M105.72 32.77c.132.011-.191-.063-.086-.019a1.01 1.01 0 0 1-.148-.083c-.008-.005-.112-.09-.044-.03a1.028 1.028 0 0 1-.34-.476 4.265 4.265 0 0 1-.201-1.414 4.471 4.471 0 0 0-.315-1.844 1.09 1.09 0 0 0-.767-.633 1.1 1.1 0 0 0-.964.246c-.433.425-.467 1.143-.497 1.714a5.524 5.524 0 0 0 .185 1.76 5.05 5.05 0 0 0 1.543 2.426 5.264 5.264 0 0 0 3.053 1.29.799.799 0 0 0 .769-.949.807.807 0 0 0-.208-.406l-1.419-1.35a.794.794 0 1 0-1.122 1.124l1.419 1.349.561-1.356a3.164 3.164 0 0 1-.689-.14 2.659 2.659 0 0 1-.688-.303 3.279 3.279 0 0 1-.586-.41 4.507 4.507 0 0 1-.525-.546 4.435 4.435 0 0 1-.426-.716 1.813 1.813 0 0 1-.104-.276 4.1 4.1 0 0 1-.123-.475 4.076 4.076 0 0 1-.054-1.022c.006-.145.021-.29.043-.433.02-.076.035-.153.044-.23.003-.193-.026.103-.127.148l-.4.108a.44.44 0 0 1-.326-.191c-.017-.066-.012-.055.014.035.03.105.054.213.07.321.031.252.048.505.053.759.005.537.068 1.073.186 1.597a2.56 2.56 0 0 0 2.219 2.013.798.798 0 0 0 .793-.794.81.81 0 0 0-.793-.794Z"/>
    <path fill="#6C63FF" d="M171.176 84.32c-4.361-5.809-6.882-12.304-6.964-19.71a1.598 1.598 0 0 1 .971-2.037l14.863-5.267a1.594 1.594 0 0 1 2.035.972l6.963 19.71a1.598 1.598 0 0 1-.971 2.038l-14.863 5.267a1.594 1.594 0 0 1-2.034-.973Z"/>
    <path fill="#000" d="M174.532 83.97a1.594 1.594 0 0 1-2.035-.973c-4.36-5.81-6.881-12.305-6.963-19.71a1.588 1.588 0 0 1-.059-.818l-.292.104a1.597 1.597 0 0 0-.971 2.037c.083 7.406 2.603 13.901 6.964 19.71a1.596 1.596 0 0 0 2.034.973l14.864-5.267a1.593 1.593 0 0 0 1.029-1.22l-14.571 5.163Z" opacity=".2"/>
    <path fill="#fff" d="m181.495 69.216-9.951 3.557a.632.632 0 0 1-.81-.384.638.638 0 0 1 .384-.811l9.951-3.558a.627.627 0 0 1 .484.025.64.64 0 0 1 .326.36.638.638 0 0 1-.384.811Zm-8.93-.504-2.189.782a.637.637 0 0 1-.811-.383.638.638 0 0 1 .383-.812h.001l2.19-.783a.633.633 0 0 1 .785.87.635.635 0 0 1-.359.326Zm10.804 5.761-9.951 3.558a.634.634 0 1 1-.428-1.196h.002l9.951-3.557a.633.633 0 0 1 .785.87.635.635 0 0 1-.359.325Zm-.937-2.628-9.951 3.557a.629.629 0 0 1-.683-.171.632.632 0 0 1-.104-.698.637.637 0 0 1 .36-.327h.001l9.951-3.557a.629.629 0 0 1 .683.171.633.633 0 0 1 .104.698.64.64 0 0 1-.36.326h-.001Z"/>
    <path fill="#3F3D56" d="M172.219 62.776a2.645 2.645 0 0 0 2.643-2.647 2.645 2.645 0 0 0-2.643-2.647 2.645 2.645 0 0 0-2.643 2.647 2.645 2.645 0 0 0 2.643 2.648Z"/>
    <path fill="#6C63FF" d="M41.696 16.846c2.662-6.76 6.871-12.31 13.13-16.254a1.595 1.595 0 0 1 2.242-.237l12.257 9.93a1.599 1.599 0 0 1 .237 2.246l-13.13 16.255a1.595 1.595 0 0 1-2.242.236l-12.258-9.93a1.598 1.598 0 0 1-.236-2.246Z"/>
    <path fill="#000" d="M43.75 19.527a1.599 1.599 0 0 1-.237-2.245c2.663-6.76 6.872-12.31 13.131-16.255.176-.215.405-.38.665-.477l-.241-.195a1.594 1.594 0 0 0-2.242.237c-6.259 3.944-10.468 9.494-13.13 16.254a1.6 1.6 0 0 0 .236 2.245l12.258 9.931a1.588 1.588 0 0 0 1.576.24L43.75 19.528Z" opacity=".2"/>
    <path fill="#fff" d="m59.947 17.753-8.232-6.633a.635.635 0 0 1 .795-.989l8.232 6.632a.635.635 0 0 1-.795.99Zm-4.242-7.886-1.811-1.46a.635.635 0 0 1 .795-.989l1.81 1.46a.636.636 0 0 1-.794.989Zm.749 12.235L48.22 15.47a.635.635 0 0 1 .795-.99l8.233 6.633a.635.635 0 0 1-.795.99Zm1.746-2.174-8.232-6.633a.635.635 0 0 1 .792-.991l.003.002 8.232 6.632a.635.635 0 0 1-.792.992l-.002-.002Z"/>
    <path fill="#3F3D56" d="M62.828 7.73a2.645 2.645 0 0 0 2.643-2.648 2.645 2.645 0 0 0-2.643-2.647 2.645 2.645 0 0 0-2.644 2.647 2.645 2.645 0 0 0 2.644 2.647Z"/>
    <path fill="#6C63FF" d="M11.376 95.988c-6.45-8.592-10.179-18.2-10.3-29.155A2.367 2.367 0 0 1 2.51 63.82l21.986-7.79a2.357 2.357 0 0 1 3.009 1.437l10.3 29.155a2.367 2.367 0 0 1-1.436 3.013l-21.985 7.791a2.357 2.357 0 0 1-3.01-1.438Z"/>
    <path fill="#000" d="M16.34 95.468a2.357 2.357 0 0 1-3.01-1.438c-6.45-8.592-10.178-18.2-10.3-29.155a2.337 2.337 0 0 1-.086-1.209l-.433.154a2.362 2.362 0 0 0-1.436 3.013c.122 10.954 3.85 20.563 10.3 29.155a2.362 2.362 0 0 0 3.01 1.438l21.985-7.79a2.35 2.35 0 0 0 1.522-1.805L16.34 95.468Z" opacity=".2"/>
    <path fill="#fff" d="m26.64 73.647-14.72 5.261a.937.937 0 0 1-1.164-1.287.938.938 0 0 1 .534-.482l14.719-5.261a.937.937 0 0 1 1.163 1.286.938.938 0 0 1-.533.483ZM13.43 72.9l-3.238 1.158a.937.937 0 0 1-1.16-1.287.939.939 0 0 1 .53-.482L12.8 71.13a.936.936 0 0 1 1.195.57.94.94 0 0 1-.565 1.2Zm15.98 8.523-14.717 5.261a.936.936 0 0 1-1.199-.568.94.94 0 0 1 .568-1.2l14.719-5.262a.937.937 0 0 1 1.162 1.287.94.94 0 0 1-.532.482Zm-1.385-3.888-14.718 5.261a.939.939 0 1 1-.63-1.769l14.718-5.261a.934.934 0 0 1 1.198.569.94.94 0 0 1-.568 1.2Z"/>
    <path fill="#3F3D56" d="M12.919 64.121c2.16 0 3.91-1.753 3.91-3.915a3.913 3.913 0 0 0-3.91-3.916 3.913 3.913 0 0 0-3.91 3.916 3.913 3.913 0 0 0 3.91 3.915Z"/>
    <path fill="#F2F2F2" d="M156.459 237.605c-7.257-.037-13.946-1.957-19.884-6.371a1.6 1.6 0 0 1-1.033-2.007l4.805-15.039a1.599 1.599 0 0 1 2.004-1.034l19.884 6.371a1.598 1.598 0 0 1 1.032 2.007l-4.805 15.039a1.595 1.595 0 0 1-2.003 1.034Z"/>
    <path fill="#000" d="M158.21 234.716a1.6 1.6 0 0 1-.789.932 1.59 1.59 0 0 1-1.215.102c-7.257-.037-13.946-1.957-19.884-6.371a1.572 1.572 0 0 1-.685-.448l-.095.296a1.6 1.6 0 0 0 1.033 2.007c5.938 4.414 12.627 6.334 19.884 6.371a1.595 1.595 0 0 0 2.003-1.034l4.805-15.039a1.598 1.598 0 0 0-.347-1.559l-4.71 14.743Z" opacity=".2"/>
    <path fill="#fff" d="m150.693 220.238-3.192 10.087a.641.641 0 0 1-.311.374.62.62 0 0 1-.701-.075.632.632 0 0 1-.198-.677l.002-.005 3.191-10.087a.637.637 0 0 1 .795-.411.637.637 0 0 1 .414.794Zm-5.804 6.816-.702 2.219a.641.641 0 0 1-.311.373.62.62 0 0 1-.7-.074.629.629 0 0 1-.225-.431.62.62 0 0 1 .026-.246l.001-.005.703-2.219a.641.641 0 0 1 .311-.373.622.622 0 0 1 .7.075.625.625 0 0 1 .225.43.62.62 0 0 1-.026.246l-.002.005Zm11.117-5.129-3.191 10.087a.632.632 0 0 1-.311.373.64.64 0 0 1-.926-.506.641.641 0 0 1 .027-.246l.001-.005 3.192-10.087a.641.641 0 0 1 .311-.374.62.62 0 0 1 .701.075.642.642 0 0 1 .198.678l-.002.005Zm-2.656-.844-3.192 10.087a.641.641 0 0 1-.311.374.619.619 0 0 1-.483.044.627.627 0 0 1-.373-.312.642.642 0 0 1-.043-.484l.001-.005 3.192-10.087a.627.627 0 0 1 .311-.373.619.619 0 0 1 .483-.044.635.635 0 0 1 .416.795l-.001.005Z"/>
    <path fill="#CCC" d="M137.857 224.785a2.645 2.645 0 0 0 2.643-2.647 2.645 2.645 0 0 0-2.643-2.647 2.646 2.646 0 0 0-2.644 2.647 2.646 2.646 0 0 0 2.644 2.647Z"/>
    <path fill="#fff" d="M196.045 118.778c.258-1.021-.72-2.15-2.185-2.522-1.465-.372-2.862.154-3.121 1.175-.258 1.021.72 2.15 2.185 2.522 1.466.371 2.863-.155 3.121-1.175Z"/>
    <path fill="#3F3D56" d="M178.153 118.662c.259-1.021-.72-2.149-2.185-2.521-1.465-.372-2.862.154-3.12 1.175-.258 1.02.72 2.149 2.185 2.521 1.465.372 2.862-.154 3.12-1.175Z"/>
    <path fill="#FF6584" d="M199.402 133.644c.259-1.021-.72-2.15-2.185-2.522-1.465-.372-2.862.154-3.12 1.175-.258 1.021.72 2.15 2.185 2.521 1.465.372 2.862-.154 3.12-1.174Z"/>
    <path fill="#E6E6E6" d="M203.573 139.249c.106-.951-.343-1.781-1.004-1.855-.66-.074-1.281.637-1.387 1.587-.106.951.343 1.782 1.003 1.856.661.074 1.282-.637 1.388-1.588Z"/>
    <path fill="#3F3D56" d="M205.044 150.477c.106-.95-.343-1.781-1.003-1.855-.661-.074-1.282.637-1.388 1.588-.106.95.343 1.781 1.004 1.855.66.074 1.281-.637 1.387-1.588Z"/>
    <path fill="#E6E6E6" d="M186.753 129.08c.106-.951-.343-1.782-1.004-1.856-.66-.074-1.282.637-1.388 1.588-.106.951.344 1.781 1.004 1.855.66.074 1.282-.637 1.388-1.587Z"/>
    <path fill="#FF6584" d="M195.757 125.692c.106-.951-.344-1.781-1.004-1.855-.66-.074-1.282.637-1.388 1.587-.106.951.343 1.782 1.004 1.856.66.073 1.282-.637 1.388-1.588Z"/>
    <path fill="#3F3D56" d="M184.664 116.54c.106-.951-.343-1.782-1.003-1.855-.661-.074-1.282.636-1.388 1.587-.106.951.343 1.781 1.004 1.855.66.074 1.281-.637 1.387-1.587Z"/>
    <path fill="#fff" d="M28.99 112.424c.26-1.02-.72-2.149-2.184-2.521-1.465-.372-2.862.154-3.12 1.175-.259 1.021.72 2.149 2.184 2.521 1.465.372 2.863-.154 3.12-1.175Z"/>
    <path fill="#3F3D56" d="M11.1 112.309c.258-1.021-.72-2.15-2.186-2.521-1.465-.372-2.862.154-3.12 1.174-.259 1.021.72 2.15 2.185 2.522 1.465.372 2.862-.154 3.12-1.175Z"/>
    <path fill="#FF6584" d="M32.348 127.29c.259-1.02-.72-2.149-2.185-2.521-1.465-.372-2.862.154-3.12 1.175-.258 1.02.72 2.149 2.185 2.521 1.465.372 2.862-.154 3.12-1.175Z"/>
    <path fill="#E6E6E6" d="M36.519 132.896c.106-.951-.343-1.782-1.004-1.855-.66-.074-1.281.636-1.388 1.587-.106.951.344 1.782 1.004 1.855.66.074 1.282-.636 1.388-1.587Z"/>
    <path fill="#3F3D56" d="M37.99 144.124c.106-.951-.343-1.781-1.004-1.855-.66-.074-1.281.637-1.387 1.587-.106.951.343 1.782 1.003 1.856.66.074 1.282-.637 1.388-1.588Z"/>
    <path fill="#E6E6E6" d="M19.699 122.726c.106-.95-.344-1.781-1.004-1.855-.66-.074-1.282.637-1.388 1.588-.106.95.344 1.781 1.004 1.855.66.074 1.282-.637 1.388-1.588Z"/>
    <path fill="#FF6584" d="M28.703 119.339c.106-.951-.344-1.782-1.004-1.856-.66-.073-1.282.637-1.388 1.588-.106.951.343 1.781 1.004 1.855.66.074 1.281-.637 1.387-1.587Z"/>
    <path fill="#3F3D56" d="M17.61 110.187c.106-.951-.343-1.782-1.003-1.856-.66-.074-1.282.637-1.388 1.588-.106.951.343 1.781 1.003 1.855.66.074 1.282-.637 1.388-1.587Z"/>
    <path fill="#F2F2F2" d="M143.157 163.207c-4.361-5.809-6.881-12.305-6.964-19.711a1.6 1.6 0 0 1 .971-2.037l14.864-5.267a1.594 1.594 0 0 1 2.034.972l6.964 19.711c.14.399.117.838-.065 1.22a1.594 1.594 0 0 1-.906.817l-14.864 5.267a1.594 1.594 0 0 1-2.034-.972Z"/>
    <path fill="#000" d="M146.513 162.856a1.598 1.598 0 0 1-2.034-.973c-4.361-5.809-6.881-12.305-6.964-19.71a1.577 1.577 0 0 1-.058-.817l-.293.103a1.599 1.599 0 0 0-.971 2.037c.083 7.406 2.603 13.902 6.964 19.711a1.594 1.594 0 0 0 2.034.972l14.864-5.267a1.591 1.591 0 0 0 1.029-1.22l-14.571 5.164Z" opacity=".2"/>
    <path fill="#fff" d="m153.476 148.103-9.95 3.557a.637.637 0 0 1-.811-.385.638.638 0 0 1 .384-.811l9.951-3.557a.63.63 0 0 1 .846.629.63.63 0 0 1-.42.567Zm-8.93-.505-2.189.783a.637.637 0 0 1-.811-.384.637.637 0 0 1 .383-.812h.002l2.189-.783a.635.635 0 0 1 .426 1.196Zm10.804 5.762-9.95 3.557a.64.64 0 0 1-.485-.024.624.624 0 0 1-.326-.359.647.647 0 0 1 .023-.486.643.643 0 0 1 .36-.326l.001-.001 9.951-3.557a.635.635 0 0 1 .426 1.196Zm-.937-2.629-9.95 3.557a.622.622 0 0 1-.485-.023.643.643 0 0 1-.326-.36.64.64 0 0 1 .171-.684.64.64 0 0 1 .212-.128h.001l9.951-3.558a.637.637 0 0 1 .811.384.637.637 0 0 1-.383.812h-.002Z"/>
    <path fill="#CCC" d="M144.2 141.663a2.646 2.646 0 0 0 2.644-2.647 2.645 2.645 0 1 0-5.287 0 2.645 2.645 0 0 0 2.643 2.647Z"/>
  </g>
  <defs>
    <clipPath id="a">
      <path fill="#fff" d="M0 0h206v292H0z"/>
    </clipPath>
  </defs>
</svg>
